<svg xmlns="http://www.w3.org/2000/svg" width="1024" height="1024" fill="none" viewBox="0 0 1024 1024" id="mail"><rect width="690" height="690" x="167" y="167" fill="#fff" rx="100"></rect><g filter="url(#filter0_diii_34_113)"><path fill="#0080FF" d="M624.5 714.5H399.5C349.876 714.5 309.5 674.124 309.5 624.5V399.5C309.5 349.876 349.876 309.5 399.5 309.5H624.5C674.124 309.5 714.5 349.876 714.5 399.5V624.5C714.5 674.124 674.124 714.5 624.5 714.5Z"></path><path fill="url(#paint0_linear_34_113)" d="M624.5 714.5H399.5C349.876 714.5 309.5 674.124 309.5 624.5V399.5C309.5 349.876 349.876 309.5 399.5 309.5H624.5C674.124 309.5 714.5 349.876 714.5 399.5V624.5C714.5 674.124 674.124 714.5 624.5 714.5Z"></path><path fill="url(#paint1_linear_34_113)" fill-opacity=".7" d="M624.5 714.5H399.5C349.876 714.5 309.5 674.124 309.5 624.5V399.5C309.5 349.876 349.876 309.5 399.5 309.5H624.5C674.124 309.5 714.5 349.876 714.5 399.5V624.5C714.5 674.124 674.124 714.5 624.5 714.5Z"></path></g><g filter="url(#filter1_dii_34_113)"><path fill="#fff" d="M646.167 438.74L572.908 512L646.156 585.249C646.651 583.404 647 581.503 647 579.5V444.5C647 442.497 646.651 440.596 646.167 438.74ZM542.24 510.864L630.26 422.832C628.404 422.349 626.503 422 624.5 422H399.5C397.497 422 395.596 422.349 393.74 422.832L481.76 510.864C498.444 527.525 525.556 527.525 542.24 510.864ZM512 545.851C495.8 545.851 479.679 539.754 467.113 527.795L393.74 601.168C395.596 601.651 397.497 602 399.5 602H624.5C626.503 602 628.404 601.651 630.26 601.168L556.887 527.795C544.321 539.754 528.2 545.851 512 545.851ZM377.833 438.74C377.349 440.596 377 442.497 377 444.5V579.5C377 581.503 377.349 583.404 377.833 585.26L451.093 512L377.833 438.74Z"></path></g><defs><linearGradient id="paint0_linear_34_113" x1="512.31" x2="512.31" y1="164.054" y2="624.5" gradientUnits="userSpaceOnUse"><stop offset=".005" stop-color="#fff" stop-opacity=".08"></stop><stop offset=".085" stop-opacity=".08"></stop><stop offset=".337" stop-color="#fff" stop-opacity=".1"></stop><stop offset=".661" stop-color="#fff" stop-opacity=".1"></stop><stop offset="1" stop-opacity=".1"></stop></linearGradient><linearGradient id="paint1_linear_34_113" x1="512" x2="512" y1="309.5" y2="714.5" gradientUnits="userSpaceOnUse"><stop stop-color="#0080FF"></stop><stop offset="1" stop-color="#fff" stop-opacity="0"></stop></linearGradient><filter id="filter0_diii_34_113" width="445" height="448.462" x="289.5" y="299.5" color-interpolation-filters="sRGB" filterUnits="userSpaceOnUse"><feFlood flood-opacity="0" result="BackgroundImageFix"></feFlood><feColorMatrix in="SourceAlpha" result="hardAlpha" values="0 0 0 0 0 0 0 0 0 0 0 0 0 0 0 0 0 0 127 0"></feColorMatrix><feOffset dy="13.462"></feOffset><feGaussianBlur stdDeviation="10"></feGaussianBlur><feColorMatrix values="0 0 0 0 0 0 0 0 0 0.501961 0 0 0 0 1 0 0 0 0.6 0"></feColorMatrix><feBlend in2="BackgroundImageFix" result="effect1_dropShadow_34_113"></feBlend><feBlend in="SourceGraphic" in2="effect1_dropShadow_34_113" result="shape"></feBlend><feColorMatrix in="SourceAlpha" result="hardAlpha" values="0 0 0 0 0 0 0 0 0 0 0 0 0 0 0 0 0 0 127 0"></feColorMatrix><feOffset dy="20.19"></feOffset><feGaussianBlur stdDeviation="45"></feGaussianBlur><feComposite in2="hardAlpha" k2="-1" k3="1" operator="arithmetic"></feComposite><feColorMatrix values="0 0 0 0 0 0 0 0 0 0.501961 0 0 0 0 1 0 0 0 0.6 0"></feColorMatrix><feBlend in2="shape" result="effect2_innerShadow_34_113"></feBlend><feColorMatrix in="SourceAlpha" result="hardAlpha" values="0 0 0 0 0 0 0 0 0 0 0 0 0 0 0 0 0 0 127 0"></feColorMatrix><feOffset dy="15"></feOffset><feGaussianBlur stdDeviation="6.5"></feGaussianBlur><feComposite in2="hardAlpha" k2="-1" k3="1" operator="arithmetic"></feComposite><feColorMatrix values="0 0 0 0 1 0 0 0 0 1 0 0 0 0 1 0 0 0 0.3 0"></feColorMatrix><feBlend in2="effect2_innerShadow_34_113" result="effect3_innerShadow_34_113"></feBlend><feColorMatrix in="SourceAlpha" result="hardAlpha" values="0 0 0 0 0 0 0 0 0 0 0 0 0 0 0 0 0 0 127 0"></feColorMatrix><feOffset dy="-10"></feOffset><feGaussianBlur stdDeviation="7"></feGaussianBlur><feComposite in2="hardAlpha" k2="-1" k3="1" operator="arithmetic"></feComposite><feColorMatrix values="0 0 0 0 1 0 0 0 0 1 0 0 0 0 1 0 0 0 0.25 0"></feColorMatrix><feBlend in2="effect3_innerShadow_34_113" result="effect4_innerShadow_34_113"></feBlend></filter><filter id="filter1_dii_34_113" width="388.469" height="298.469" x="317.766" y="395.075" color-interpolation-filters="sRGB" filterUnits="userSpaceOnUse"><feFlood flood-opacity="0" result="BackgroundImageFix"></feFlood><feColorMatrix in="SourceAlpha" result="hardAlpha" values="0 0 0 0 0 0 0 0 0 0 0 0 0 0 0 0 0 0 127 0"></feColorMatrix><feOffset dy="32.31"></feOffset><feGaussianBlur stdDeviation="29.617"></feGaussianBlur><feColorMatrix values="0 0 0 0 0 0 0 0 0 0.0980392 0 0 0 0 0.345098 0 0 0 0.25 0"></feColorMatrix><feBlend in2="BackgroundImageFix" result="effect1_dropShadow_34_113"></feBlend><feBlend in="SourceGraphic" in2="effect1_dropShadow_34_113" result="shape"></feBlend><feColorMatrix in="SourceAlpha" result="hardAlpha" values="0 0 0 0 0 0 0 0 0 0 0 0 0 0 0 0 0 0 127 0"></feColorMatrix><feOffset dy="-21.54"></feOffset><feGaussianBlur stdDeviation="13.462"></feGaussianBlur><feComposite in2="hardAlpha" k2="-1" k3="1" operator="arithmetic"></feComposite><feColorMatrix values="0 0 0 0 0.0716667 0 0 0 0 0.498639 0 0 0 0 0.716667 0 0 0 0.29 0"></feColorMatrix><feBlend in2="shape" result="effect2_innerShadow_34_113"></feBlend><feColorMatrix in="SourceAlpha" result="hardAlpha" values="0 0 0 0 0 0 0 0 0 0 0 0 0 0 0 0 0 0 127 0"></feColorMatrix><feOffset dy="-8.077"></feOffset><feGaussianBlur stdDeviation="5.385"></feGaussianBlur><feComposite in2="hardAlpha" k2="-1" k3="1" operator="arithmetic"></feComposite><feColorMatrix values="0 0 0 0 1 0 0 0 0 1 0 0 0 0 1 0 0 0 0.75 0"></feColorMatrix><feBlend in2="effect2_innerShadow_34_113" result="effect3_innerShadow_34_113"></feBlend></filter></defs></svg>