<?xml version="1.0" encoding="utf-8"?>
<svg version="1.1" xmlns:xlink="http://www.w3.org/1999/xlink" width="40px" height="40px" xmlns="http://www.w3.org/2000/svg">
  <g transform="matrix(1 0 0 1 -3730 -3089 )">
    <path d="M 14.2897727272727 33.0989583333333  C 14.4602272727273 32.9427083333333  14.5454545454545 32.7430555555556  15 32.5  L 15 14.1666666666667  C 14.5454545454545 13.9236111111111  14.4602272727273 13.7239583333333  14.2897727272727 13.5677083333333  C 14.1193181818182 13.4114583333333  13.9015151515152 13.3333333333333  13.6363636363636 13.3333333333333  L 11.8181818181818 13.3333333333333  C 11.5530303030303 13.3333333333333  11.3352272727273 13.4114583333333  11.1647727272727 13.5677083333333  C 10.9943181818182 13.7239583333333  10.9090909090909 13.9236111111111  11 14.1666666666667  L 11 32.5  C 10.9090909090909 32.7430555555556  10.9943181818182 32.9427083333333  11.1647727272727 33.0989583333333  C 11.3352272727273 33.2552083333333  11.5530303030303 33.3333333333333  11.8181818181818 33.3333333333333  L 13.6363636363636 33.3333333333333  C 13.9015151515152 33.3333333333333  14.1193181818182 33.2552083333333  14.2897727272727 33.0989583333333  Z M 21.5625 33.0989583333333  C 21.7329545454545 32.9427083333333  21.8181818181818 32.7430555555556  21.8181818181818 32.5  L 21.8181818181818 14.1666666666667  C 21.8181818181818 13.9236111111111  21.7329545454545 13.7239583333333  21.5625 13.5677083333333  C 21.3920454545455 13.4114583333333  21.1742424242424 13.3333333333333  20.9090909090909 13.3333333333333  L 19.0909090909091 13.3333333333333  C 18.8257575757576 13.3333333333333  18.6079545454545 13.4114583333333  18.4375 13.5677083333333  C 18.2670454545455 13.7239583333333  18.1818181818182 13.9236111111111  18.1818181818182 14.1666666666667  L 18.1818181818182 32.5  C 18.1818181818182 32.7430555555556  18.2670454545455 32.9427083333333  18.4375 33.0989583333333  C 18.6079545454545 33.2552083333333  18.8257575757576 33.3333333333333  19.0909090909091 33.3333333333333  L 20.9090909090909 33.3333333333333  C 21.1742424242424 33.3333333333333  21.3920454545455 33.2552083333333  21.5625 33.0989583333333  Z M 28.8352272727273 33.0989583333333  C 29.0056818181818 32.9427083333333  29.0909090909091 32.7430555555556  29 32.5  L 29 14.1666666666667  C 29.0909090909091 13.9236111111111  29.0056818181818 13.7239583333333  28.8352272727273 13.5677083333333  C 28.6647727272727 13.4114583333333  28.4469696969697 13.3333333333333  28.1818181818182 13.3333333333333  L 26.3636363636364 13.3333333333333  C 26.0984848484848 13.3333333333333  25.8806818181818 13.4114583333333  25.7102272727273 13.5677083333333  C 25.5397727272727 13.7239583333333  25.4545454545455 13.9236111111111  25 14.1666666666667  L 25 32.5  C 25.4545454545455 32.7430555555556  25.5397727272727 32.9427083333333  25.7102272727273 33.0989583333333  C 25.8806818181818 33.2552083333333  26.0984848484848 33.3333333333333  26.3636363636364 33.3333333333333  L 28.1818181818182 33.3333333333333  C 28.4469696969697 33.3333333333333  28.6647727272727 33.2552083333333  28.8352272727273 33.0989583333333  Z M 15.0284090909091 3.61979166666667  L 13.6363636363636 7  L 26.3636363636364 7  L 25 3.61979166666667  C 24.8674242424242 3.46354166666667  24.7064393939394 3.36805555555555  24.5170454545455 3.33333333333333  L 15.5113636363636 3.33333333333333  C 15.3219696969697 3.36805555555555  15.1609848484849 3.46354166666667  15.0284090909091 3.61979166666667  Z M 39.7443181818182 6.90104166666667  C 39.9147727272727 7.05729166666667  40 7.25694444444444  40 7.5  L 40 9.16666666666666  C 40 9.40972222222222  39.9147727272727 9.609375  39.7443181818182 9.765625  C 39.5738636363636 9.921875  39.3560606060606 10  39.0909090909091 10  L 36 10  L 36 34.6875  C 36.3636363636364 36.1284722222222  35.9185606060606 37.3741319444444  35.0284090909091 38.4244791666667  C 34.1382575757576 39.4748263888889  33.0681818181818 40  31.8181818181818 40  L 8.18181818181818 40  C 6.93181818181818 40  5.86174242424243 39.4921875  4.97159090909091 38.4765625  C 4.08143939393939 37.4609375  3.63636363636364 36.2326388888889  4 34.7916666666667  L 4 10  L 0.909090909090909 10  C 0.643939393939394 10  0.426136363636364 9.921875  0.255681818181818 9.765625  C 0.0852272727272727 9.609375  0 9.40972222222222  0 9.16666666666666  L 0 7.5  C 0 7.25694444444444  0.0852272727272727 7.05729166666667  0.255681818181818 6.90104166666667  C 0.426136363636364 6.74479166666667  0.643939393939394 6.66666666666667  0.909090909090909 6.66666666666667  L 9.6875 6.66666666666667  L 11.6761363636364 2.31770833333333  C 11.9602272727273 1.67534722222222  12.4715909090909 1.12847222222222  13.2102272727273 0.677083333333335  C 13.9488636363636 0.225694444444442  14.6969696969697 0  15.4545454545455 0  L 24.5454545454545 0  C 25.3030303030303 0  26.0511363636364 0.225694444444442  26.7897727272727 0.677083333333335  C 27.5284090909091 1.12847222222222  28.0397727272727 1.67534722222222  28.3238636363636 2.31770833333333  L 30.3125 6.66666666666667  L 39.0909090909091 6.66666666666667  C 39.3560606060606 6.66666666666667  39.5738636363636 6.74479166666667  39.7443181818182 6.90104166666667  Z " fill-rule="nonzero" fill="#d9001b" stroke="none" transform="matrix(1 0 0 1 3730 3089 )" />
  </g>
</svg>