<?xml version="1.0" encoding="utf-8"?>
<svg version="1.1" xmlns:xlink="http://www.w3.org/1999/xlink" width="37px" height="44px" xmlns="http://www.w3.org/2000/svg">
  <g transform="matrix(1 0 0 1 -2890 -864 )">
    <path d="M 36.754296875 31.8111979166667  C 36.9180989583333 33.2530381944444  37 34.7855902777778  37 36.4088541666667  C 37 38.4904513888889  36.3977864583333 40.2760416666667  35.193359375 41.765625  C 33.9889322916667 43.2552083333333  32.5388020833333 44  30.84296875 44  L 6.15703125 44  C 4.46119791666667 44  3.01106770833333 43.2552083333333  1.806640625 41.765625  C 0.602213541666667 40.2760416666667  0 38.4904513888889  0 36.4088541666667  C 0 34.7855902777778  0.0819010416666669 33.2530381944444  0.245703125 31.8111979166667  C 0.409505208333334 30.3693576388889  0.713020833333334 28.91796875  1.15625 27.45703125  C 1.59947916666667 25.99609375  2.16315104166667 24.7452256944444  2.847265625 23.7044270833333  C 3.53138020833333 22.6636284722222  4.437109375 21.8138020833333  5.564453125 21.1549479166667  C 6.691796875 20.49609375  7.98776041666667 20.1666666666667  9.45234375 20.1666666666667  C 11.9768229166667 22.6111111111111  14.9927083333333 23.8333333333333  18.5 23.8333333333333  C 22.0072916666667 23.8333333333333  25.0231770833333 22.6111111111111  27.54765625 20.1666666666667  C 29.0122395833333 20.1666666666667  30.308203125 20.49609375  31.435546875 21.1549479166667  C 32.562890625 21.8138020833333  33.4686197916667 22.6636284722222  34.152734375 23.7044270833333  C 34.8368489583333 24.7452256944444  35.4005208333333 25.99609375  35.84375 27.45703125  C 36.2869791666667 28.91796875  36.5904947916667 30.3693576388889  36.754296875 31.8111979166667  Z M 26.348046875 3.22265625  C 28.516015625 5.37109375  29.6 7.96354166666667  29.6 11  C 29.6 14.0364583333333  28.516015625 16.62890625  26.348046875 18.77734375  C 24.180078125 20.92578125  21.5640625 22  18.5 22  C 15.4359375 22  12.819921875 20.92578125  10.651953125 18.77734375  C 8.483984375 16.62890625  7.4 14.0364583333333  7.4 11  C 7.4 7.96354166666667  8.483984375 5.37109375  10.651953125 3.22265625  C 12.819921875 1.07421875  15.4359375 0  18.5 0  C 21.5640625 0  24.180078125 1.07421875  26.348046875 3.22265625  Z " fill-rule="nonzero" fill="#eebc00" stroke="none" transform="matrix(1 0 0 1 2890 864 )" />
  </g>
</svg>