<?xml version="1.0" encoding="UTF-8"?>
<svg xmlns="http://www.w3.org/2000/svg" xmlns:xlink="http://www.w3.org/1999/xlink" width="25px" height="25px" viewBox="0 0 25 25" version="1.1">
<g id="surface1">
<path style=" stroke:none;fill-rule:nonzero;fill:rgb(78.431373%,14.509804%,14.509804%);fill-opacity:1;" d="M 15.453125 11.273438 C 16.273438 10.453125 16.683594 9.453125 16.683594 8.316406 C 16.683594 7.183594 16.273438 6.183594 15.453125 5.363281 C 14.636719 4.546875 13.636719 4.136719 12.5 4.136719 C 11.363281 4.136719 10.363281 4.546875 9.546875 5.363281 C 8.726562 6.183594 8.316406 7.183594 8.316406 8.316406 C 8.316406 9.453125 8.726562 10.453125 9.546875 11.273438 C 10.363281 12.089844 11.363281 12.5 12.5 12.5 C 13.636719 12.5 14.636719 12.089844 15.453125 11.273438 Z M 18.453125 2.453125 C 20.089844 4.089844 20.910156 6.046875 20.910156 8.363281 C 20.910156 9.546875 20.726562 10.5 20.363281 11.273438 L 14.410156 23.863281 C 14.226562 24.226562 13.953125 24.5 13.636719 24.726562 C 13.273438 24.953125 12.910156 25.046875 12.546875 25.046875 C 12.183594 25.046875 11.773438 24.953125 11.453125 24.726562 C 11.089844 24.5 10.863281 24.226562 10.683594 23.863281 L 4.683594 11.273438 C 4.316406 10.5 4.136719 9.546875 4.136719 8.363281 C 4.136719 6.046875 4.953125 4.089844 6.589844 2.453125 C 8.226562 0.816406 10.226562 0 12.546875 0 C 14.863281 0 16.816406 0.816406 18.453125 2.453125 Z M 18.453125 2.453125 "/>
</g>
</svg>
