<?xml version="1.0" encoding="utf-8"?>
<svg version="1.1" xmlns:xlink="http://www.w3.org/1999/xlink" width="55px" height="55px" xmlns="http://www.w3.org/2000/svg">
  <g transform="matrix(1 0 0 1 -2696 -518 )">
    <path d="M 54.8828125 42.6171875  C 54.9609375 42.7994791666667  55 43.0729166666667  55 43.4375  C 55 44.140625  54.8697916666667 45.05859375  54.609375 46.19140625  C 54.3489583333333 47.32421875  54.0755208333333 48.2161458333333  53.7890625 48.8671875  C 53.2421875 50.1692708333333  51.6536458333333 51.5494791666667  49.0234375 53.0078125  C 46.5755208333333 54.3359375  44.1536458333333 55  41.7578125 55  C 41.0546875 55  40.3645833333333 54.9544270833333  39.6875 54.86328125  C 39.0104166666667 54.7721354166667  38.26171875 54.609375  37.44140625 54.375  C 36.62109375 54.140625  36.0091145833333 53.9518229166667  35.60546875 53.80859375  C 35.2018229166667 53.6653645833333  34.4791666666667 53.3984375  33.4375 53.0078125  C 32.3958333333333 52.6171875  31.7578125 52.3828125  31.5234375 52.3046875  C 28.9713541666667 51.3932291666667  26.6927083333333 50.3125  24.6875 49.0625  C 21.3802083333333 47.0052083333333  17.9427083333333 44.1927083333333  14.375 40.625  C 10.8072916666667 37.0572916666667  7.99479166666667 33.6197916666667  5.9375 30.3125  C 4.6875 28.3072916666667  3.60677083333333 26.0286458333333  2.6953125 23.4765625  C 2.6171875 23.2421875  2.3828125 22.6041666666667  1.9921875 21.5625  C 1.6015625 20.5208333333333  1.33463541666667 19.7981770833333  1.19140625 19.39453125  C 1.04817708333333 18.9908854166667  0.859375 18.37890625  0.625 17.55859375  C 0.390625 16.73828125  0.227864583333333 15.9895833333333  0.13671875 15.3125  C 0.0455729166666667 14.6354166666667  0 13.9453125  0 13.2421875  C 0 10.8463541666667  0.6640625 8.42447916666666  1.9921875 5.9765625  C 3.45052083333333 3.34635416666666  4.83072916666667 1.7578125  6.1328125 1.2109375  C 6.78385416666667 0.924479166666662  7.67578125 0.651041666666661  8.80859375 0.390624999999999  C 9.94140625 0.130208333333331  10.859375 0  11.5625 0  C 11.9270833333333 0  12.2005208333333 0.0390625000000011  12.3828125 0.117187499999997  C 12.8515625 0.273437500000002  13.5416666666667 1.26302083333333  14.453125 3.0859375  C 14.7395833333333 3.58072916666666  15.1302083333333 4.28385416666666  15.625 5.1953125  C 16.1197916666667 6.10677083333333  16.5755208333333 6.93359375  16.9921875 7.67578125  C 17.4088541666667 8.41796875  17.8125 9.11458333333333  18.203125 9.765625  C 18.28125 9.86979166666666  18.5091145833333 10.1953125  18.88671875 10.7421875  C 19.2643229166667 11.2890625  19.5442708333333 11.7513020833333  19.7265625 12.12890625  C 19.9088541666667 12.5065104166667  20 12.8776041666667  20 13.2421875  C 20 13.7630208333333  19.62890625 14.4140625  18.88671875 15.1953125  C 18.14453125 15.9765625  17.3372395833333 16.6927083333333  16.46484375 17.34375  C 15.5924479166667 17.9947916666667  14.78515625 18.6848958333333  14.04296875 19.4140625  C 13.30078125 20.1432291666667  12.9296875 20.7421875  12.9296875 21.2109375  C 12.9296875 21.4453125  12.9947916666667 21.73828125  13.125 22.08984375  C 13.2552083333333 22.44140625  13.3658854166667 22.7083333333333  13.45703125 22.890625  C 13.5481770833333 23.0729166666667  13.73046875 23.3854166666667  14.00390625 23.828125  C 14.27734375 24.2708333333333  14.4270833333333 24.5182291666667  14.453125 24.5703125  C 16.4322916666667 28.1380208333333  18.6979166666667 31.1979166666667  21.25 33.75  C 23.8020833333333 36.3020833333333  26.8619791666667 38.5677083333333  30.4296875 40.546875  C 30.4817708333333 40.5729166666667  30.7291666666667 40.72265625  31.171875 40.99609375  C 31.6145833333333 41.26953125  31.9270833333333 41.4518229166667  32.109375 41.54296875  C 32.2916666666667 41.6341145833333  32.55859375 41.7447916666667  32.91015625 41.875  C 33.26171875 42.0052083333333  33.5546875 42.0703125  33.7890625 42.0703125  C 34.2578125 42.0703125  34.8567708333333 41.69921875  35.5859375 40.95703125  C 36.3151041666667 40.21484375  37.0052083333333 39.4075520833333  37.65625 38.53515625  C 38.3072916666667 37.6627604166667  39.0234375 36.85546875  39.8046875 36.11328125  C 40.5859375 35.37109375  41.2369791666667 35  41.7578125 35  C 42.1223958333333 35  42.4934895833333 35.0911458333333  42.87109375 35.2734375  C 43.2486979166667 35.4557291666667  43.7109375 35.7356770833333  44.2578125 36.11328125  C 44.8046875 36.4908854166667  45.1302083333333 36.71875  45.234375 36.796875  C 45.8854166666667 37.1875  46.58203125 37.5911458333333  47.32421875 38.0078125  C 48.06640625 38.4244791666667  48.8932291666667 38.8802083333333  49.8046875 39.375  C 50.7161458333333 39.8697916666667  51.4192708333333 40.2604166666667  51.9140625 40.546875  C 53.7369791666667 41.4583333333333  54.7265625 42.1484375  54.8828125 42.6171875  Z " fill-rule="nonzero" fill="#027b65" stroke="none" transform="matrix(1 0 0 1 2696 518 )" />
  </g>
</svg>